<svg xmlns="http://www.w3.org/2000/svg" viewBox="0 0 35.32 35.34"><defs><style>.cls-1{fill:none;stroke:#fff;stroke-miterlimit:10;}</style></defs><title>212Recurso 2</title><g id="Capa_2" data-name="Capa 2"><g id="Capa_1-2" data-name="Capa 1"><path class="cls-1" d="M34.82,28.22a6.59,6.59,0,0,1-12.77,2.31l-12,.91a4.88,4.88,0,1,1-.27-3.66l12-.9A6.91,6.91,0,0,1,22.44,25L10.28,12.88a6.74,6.74,0,0,1-3.19.81,6.6,6.6,0,1,1,6.6-6.6,6.74,6.74,0,0,1-.81,3.19L25,22.44a6.71,6.71,0,0,1,1.81-.69l.88-12a4.89,4.89,0,1,1,3.68.29l-.88,12A6.58,6.58,0,0,1,34.82,28.22Z"/></g></g></svg>