<svg xmlns="http://www.w3.org/2000/svg" viewBox="0 0 34.32 34.34"><defs><style>.cls-1{fill:#fff;}</style></defs><title>212Recurso 3</title><g id="Capa_2" data-name="Capa 2"><g id="Capa_1-2" data-name="Capa 1"><path class="cls-1" d="M34.32,27.72A6.59,6.59,0,0,1,21.55,30l-12,.91a4.88,4.88,0,1,1-.27-3.66l12-.9a6.91,6.91,0,0,1,.69-1.84L9.78,12.38a6.74,6.74,0,0,1-3.19.81,6.6,6.6,0,1,1,6.6-6.6,6.74,6.74,0,0,1-.81,3.19L24.54,21.94a6.71,6.71,0,0,1,1.81-.69l.88-12a4.89,4.89,0,1,1,3.68.29l-.88,12A6.58,6.58,0,0,1,34.32,27.72Z"/></g></g></svg>